<?xml version="1.0" encoding="UTF-8"?>
<svg id="Layer_1" xmlns="http://www.w3.org/2000/svg" version="1.1" viewBox="0 0 500 500">
  <!-- Generator: Adobe Illustrator 30.1.0, SVG Export Plug-In . SVG Version: 2.1.1 Build 136)  -->
  <defs>
    <style>
      .st0 {
        fill: #90b540;
      }
    </style>
  </defs>
  <g>
    <path d="M154.52,220.15c0,12.76-2.32,24.59-7.19,35.73-5.1,11.37-11.6,21.11-19.95,29.7-8.35,8.35-18.33,15.08-29.7,19.95-11.14,4.87-23.2,7.42-35.96,7.42H0l30.86-31.09h30.86c8.58,0,16.71-1.62,24.13-4.64,7.42-3.25,14.15-7.66,19.72-13.46,5.57-5.8,9.98-12.3,13.22-19.72,3.25-7.66,4.87-15.55,4.87-23.9s-1.62-16.24-4.87-23.9c-3.25-7.42-7.66-13.92-13.46-19.72-5.57-5.57-12.3-10.21-19.72-13.46-7.42-3.02-15.54-4.64-23.9-4.64h-30.86L0,127.35h61.72c12.76,0,24.59,2.55,35.96,7.42,11.14,4.87,21.11,11.6,29.47,19.95,8.58,8.58,15.08,18.33,20.19,29.7,4.87,11.14,7.19,22.97,7.19,35.73Z"/>
    <path d="M151.27,127.35l93.04,92.81,92.81-92.81v185.61h-30.63v-110.9l-62.18,61.95-93.04-93.5v-43.15Z"/>
    <path d="M500,220.15c0,12.76-2.32,24.59-7.19,35.73-5.1,11.37-11.6,21.11-19.95,29.7-8.35,8.35-18.33,15.08-29.7,19.95-11.14,4.87-23.2,7.42-35.96,7.42h-61.72l30.86-31.09h30.86c8.58,0,16.71-1.62,24.13-4.64,7.42-3.25,14.15-7.66,19.72-13.46,5.57-5.8,9.98-12.3,13.22-19.72,3.25-7.66,4.87-15.55,4.87-23.9s-1.62-16.24-4.87-23.9c-3.25-7.42-7.66-13.92-13.46-19.72-5.57-5.57-12.3-10.21-19.72-13.46-7.42-3.02-15.55-4.64-23.9-4.64h-30.86l-30.86-31.09h61.72c12.76,0,24.59,2.55,35.96,7.42,11.14,4.87,21.11,11.6,29.47,19.95,8.58,8.58,15.08,18.33,20.19,29.7,4.87,11.14,7.19,22.97,7.19,35.73Z"/>
  </g>
  <g>
    <path d="M154.52,220.15c0,12.76-2.32,24.59-7.19,35.73-5.1,11.37-11.6,21.11-19.95,29.7-8.35,8.35-18.33,15.08-29.7,19.95-11.14,4.87-23.2,7.42-35.96,7.42H0l30.86-31.09h30.86c8.58,0,16.71-1.62,24.13-4.64,7.42-3.25,14.15-7.66,19.72-13.46,5.57-5.8,9.98-12.3,13.22-19.72,3.25-7.66,4.87-15.55,4.87-23.9s-1.62-16.24-4.87-23.9c-3.25-7.42-7.66-13.92-13.46-19.72-5.57-5.57-12.3-10.21-19.72-13.46-7.42-3.02-15.54-4.64-23.9-4.64h-30.86L0,127.35h61.72c12.76,0,24.59,2.55,35.96,7.42,11.14,4.87,21.11,11.6,29.47,19.95,8.58,8.58,15.08,18.33,20.19,29.7,4.87,11.14,7.19,22.97,7.19,35.73Z"/>
    <path d="M151.27,127.35l93.04,92.81,92.81-92.81v185.61h-30.63v-110.9l-62.18,61.95-93.04-93.5v-43.15Z"/>
    <path d="M500,220.15c0,12.76-2.32,24.59-7.19,35.73-5.1,11.37-11.6,21.11-19.95,29.7-8.35,8.35-18.33,15.08-29.7,19.95-11.14,4.87-23.2,7.42-35.96,7.42h-61.72l30.86-31.09h30.86c8.58,0,16.7-1.62,24.13-4.64,7.42-3.25,14.15-7.66,19.72-13.46,5.57-5.8,9.98-12.3,13.23-19.72,3.25-7.66,4.87-15.55,4.87-23.9s-1.62-16.24-4.87-23.9c-3.25-7.42-7.66-13.92-13.46-19.72-5.57-5.57-12.3-10.21-19.72-13.46-7.42-3.02-15.55-4.64-23.9-4.64h-30.86l-30.86-31.09h61.72c12.76,0,24.59,2.55,35.96,7.42,11.14,4.87,21.11,11.6,29.47,19.95,8.58,8.58,15.08,18.33,20.19,29.7,4.87,11.14,7.19,22.97,7.19,35.73Z"/>
  </g>
  <g>
    <path class="st0" d="M20.79,372.1H0v-38.69h5.87v33.73h14.92v4.96Z"/>
    <path class="st0" d="M94.27,333.41h5.87v38.69h-5.87v-38.69Z"/>
    <path class="st0" d="M204.26,370.53c-2.17.86-6.42,1.97-11.03,1.97-16.74,0-18.86-13.3-18.86-19.47,0-12.54,8.24-20.03,19.82-20.03,3.79,0,7.08.66,9,1.62l-1.32,4.8c-1.82-.81-4.15-1.47-7.69-1.47-7.94,0-13.65,5.01-13.65,14.82s5.31,14.92,12.9,14.92c2.53,0,4.3-.35,5.16-.81v-10.92h-6.68v-4.7h12.34v19.27Z"/>
    <path class="st0" d="M307.07,372.1h-5.87v-17.6h-15.78v17.6h-5.87v-38.74h5.87v15.98h15.78v-15.98h5.87v38.74Z"/>
    <path class="st0" d="M406.39,338.41h-10.47v33.68h-5.87v-33.68h-10.42v-5.01h26.75v5.01Z"/>
    <path class="st0" d="M497.12,339.43c-1.26-.71-3.69-1.72-6.88-1.72-4.6,0-6.52,2.68-6.52,5.16,0,3.29,2.17,4.91,7.08,7.03,6.22,2.73,9.2,6.12,9.2,11.43,0,6.47-4.8,11.33-13.5,11.33-3.64,0-7.48-1.06-9.36-2.33l1.32-4.91c2.07,1.26,5.21,2.28,8.4,2.28,4.6,0,7.18-2.38,7.18-5.87,0-3.29-1.97-5.31-6.57-7.23-5.77-2.33-9.66-5.82-9.66-11.08,0-6.12,4.91-10.72,12.59-10.72,3.69,0,6.47.91,8.14,1.77l-1.42,4.86Z"/>
  </g>
</svg>